<?xml version="1.0" encoding="iso-8859-1"?>
<!-- Generator: Adobe Illustrator 19.0.0, SVG Export Plug-In . SVG Version: 6.00 Build 0)  -->
<svg version="1.1" id="Layer_1" xmlns="http://www.w3.org/2000/svg" xmlns:xlink="http://www.w3.org/1999/xlink" x="0px" y="0px"
	 viewBox="0 0 470 470" style="enable-background:new 0 0 470 470;" xml:space="preserve">
<g>
	<g>
		<g>
			<path d="M320,85c-12.865,0-25.657,1.638-38.022,4.869L69.055,145.506C28.396,156.132,0,192.933,0,235
				c0,51.005,41.495,92.5,92.5,92.5h109.414c13.358,17.018,30.451,31.148,49.643,41.007C272.862,379.451,295.89,385,320,385
				c82.71,0,150-67.29,150-150S402.71,85,320,85z M92.5,312.5c-40.203,0-73.345-30.773-77.131-70h26.425l38.45,51.96
				c1.472,1.988,3.738,3.039,6.035,3.039c1.55,0,3.114-0.479,4.455-1.472c3.33-2.464,4.032-7.161,1.567-10.49L60.455,242.5h26.413
				l38.449,51.956c1.471,1.988,3.737,3.039,6.034,3.039c1.55,0,3.114-0.479,4.455-1.472c3.33-2.464,4.032-7.161,1.567-10.49
				L105.528,242.5h17.191c8.641,0,20.729,6.092,25.868,13.038L190.74,312.5H92.5z M320,370c-43.096,0-82.593-19.856-108.363-54.478
				c-0.005-0.006-50.992-68.906-50.992-68.906c-7.932-10.719-24.591-19.116-37.926-19.116H15.375
				c3.101-32.05,25.854-59.218,57.472-67.481l212.922-55.638C296.897,101.474,308.414,100,320,100c74.439,0,135,60.561,135,135
				S394.439,370,320,370z"/>
			<circle cx="226.135" cy="160" r="7.5"/>
			<circle cx="196.135" cy="160" r="7.5"/>
			<circle cx="226.135" cy="197.5" r="7.5"/>
			<circle cx="196.135" cy="197.5" r="7.5"/>
			<circle cx="166.135" cy="197.5" r="7.5"/>
			<circle cx="136.135" cy="197.5" r="7.5"/>
			<circle cx="68.111" cy="197.5" r="7.5"/>
			<path d="M336.135,167.5h67.641c4.143,0,7.5-3.358,7.5-7.5c0-4.142-3.357-7.5-7.5-7.5h-67.641c-4.143,0-7.5,3.358-7.5,7.5
				C328.635,164.142,331.992,167.5,336.135,167.5z"/>
			<path d="M326.135,205h99.933c4.143,0,7.5-3.358,7.5-7.5c0-4.142-3.357-7.5-7.5-7.5h-99.933c-4.143,0-7.5,3.358-7.5,7.5
				C318.635,201.642,321.992,205,326.135,205z"/>
			<path d="M432.5,227.5H316.135c-4.143,0-7.5,3.358-7.5,7.5c0,4.142,3.357,7.5,7.5,7.5H432.5c4.143,0,7.5-3.358,7.5-7.5
				C440,230.858,436.643,227.5,432.5,227.5z"/>
			<path d="M426.065,265h-119.93c-4.143,0-7.5,3.358-7.5,7.5c0,4.142,3.357,7.5,7.5,7.5h119.931c4.143,0,7.5-3.358,7.5-7.5
				C433.566,268.358,430.208,265,426.065,265z"/>
			<path d="M403.775,302.5h-167.64c-4.143,0-7.5,3.358-7.5,7.5c0,4.142,3.357,7.5,7.5,7.5h167.641c4.143,0,7.5-3.358,7.5-7.5
				C411.276,305.858,407.918,302.5,403.775,302.5z"/>
			<path d="M246.135,280h30c3.397,0,6.371-2.284,7.247-5.567l30-112.5c0.6-2.251,0.12-4.654-1.3-6.502
				c-1.419-1.848-3.617-2.931-5.947-2.931h-30c-3.397,0-6.371,2.284-7.247,5.567l-30,112.5c-0.6,2.251-0.12,4.654,1.3,6.502
				C241.606,278.917,243.805,280,246.135,280z M281.896,167.5h14.477l-26,97.5h-14.477L281.896,167.5z"/>
		</g>
	</g>
</g>
<g>
</g>
<g>
</g>
<g>
</g>
<g>
</g>
<g>
</g>
<g>
</g>
<g>
</g>
<g>
</g>
<g>
</g>
<g>
</g>
<g>
</g>
<g>
</g>
<g>
</g>
<g>
</g>
<g>
</g>
</svg>
