<?xml version="1.0" encoding="iso-8859-1"?>
<!-- Generator: Adobe Illustrator 19.0.0, SVG Export Plug-In . SVG Version: 6.00 Build 0)  -->
<svg version="1.1" id="Layer_1" xmlns="http://www.w3.org/2000/svg" xmlns:xlink="http://www.w3.org/1999/xlink" x="0px" y="0px"
	 viewBox="0 0 511.998 511.998" style="enable-background:new 0 0 511.998 511.998;" xml:space="preserve">
<g>
	<g>
		<path d="M123.663,436.183l-53.391-53.391c-3.282-3.282-8.602-3.282-11.885,0c-3.282,3.282-3.282,8.603,0,11.884l53.389,53.391
			c1.642,1.642,3.792,2.462,5.943,2.462c2.15,0,4.302-0.82,5.943-2.462C126.945,444.785,126.945,439.464,123.663,436.183z"/>
	</g>
</g>
<g>
	<g>
		<path d="M152.787,407.061l-53.392-53.389c-3.283-3.282-8.603-3.282-11.885,0s-3.282,8.603,0,11.884l53.391,53.389
			c1.642,1.64,3.793,2.462,5.943,2.462s4.302-0.82,5.943-2.462C156.069,415.663,156.069,410.342,152.787,407.061z"/>
	</g>
</g>
<g>
	<g>
		<path d="M173.414,386.433l-53.391-53.389c-3.283-3.282-8.603-3.282-11.885,0c-3.282,3.282-3.282,8.603,0,11.884l53.389,53.389
			c1.642,1.64,3.793,2.462,5.943,2.462s4.302-0.82,5.943-2.462C176.696,395.035,176.696,389.714,173.414,386.433z"/>
	</g>
</g>
<g>
	<g>
		<path d="M509.535,55.479l-47.48-47.481c-1.577-1.577-3.713-2.462-5.943-2.462c-2.23,0-4.366,0.885-5.943,2.462L430.687,27.48
			l-4.935-5.117c-1.564-1.624-3.717-2.549-5.972-2.569c-0.026,0-0.052,0-0.076,0c-2.228,0-4.366,0.885-5.943,2.462l-4.977,4.977
			L391.67,10.12c-3.283-3.282-8.603-3.282-11.885,0c-3.282,3.282-3.282,8.603,0,11.884l17.113,17.113l-6.316,6.316l-17.113-17.111
			c-3.283-3.282-8.603-3.282-11.885,0c-3.282,3.282-3.282,8.603,0,11.884l17.113,17.113l-30.583,30.583L331,70.791
			c-3.283-3.282-8.603-3.282-11.885,0c-3.282,3.282-3.282,8.603,0,11.884l17.113,17.113l-37.865,37.865l-17.111-17.111
			c-3.283-3.282-8.603-3.282-11.885,0c-3.282,3.282-3.282,8.603,0,11.884l17.113,17.113L265.6,170.414l-17.111-17.111
			c-3.283-3.282-8.603-3.282-11.885,0s-3.282,8.603,0,11.884l17.113,17.113l-8.742,8.742l-17.111-17.111
			c-3.283-3.282-8.603-3.282-11.885,0c-3.282,3.282-3.282,8.603,0,11.884l17.113,17.113l-16.023,16.023l-17.111-17.111
			c-3.283-3.282-8.603-3.282-11.885,0c-3.282,3.282-3.282,8.603,0,11.884l17.113,17.113l-20.432,20.432
			c-22.446,22.446-53.42,33.322-84.989,29.825c-29.797-3.295-56.51,5.206-75.244,23.941
			c-37.203,37.205-31.252,104.252,12.32,152.704l-3.927,3.926c-3.283,3.282-3.283,8.603-0.001,11.885
			c1.642,1.64,3.792,2.462,5.943,2.462c2.15,0,4.302-0.82,5.942-2.461l3.929-3.929c26.954,24.239,59.659,36.842,89.783,36.84
			c24.027,0,46.412-8.013,62.921-24.521c18.734-18.734,27.236-45.456,23.94-75.243c-3.493-31.564,7.379-62.542,29.826-84.989
			L509.538,67.362c1.576-1.575,2.461-3.713,2.461-5.942C511.998,59.191,511.111,57.054,509.535,55.479z M208.658,408.547
			c2.723,24.612-4.068,46.457-19.121,61.51c-32.241,32.241-92.82,24.12-135.038-18.099c-42.221-42.22-50.34-102.799-18.1-135.039
			c12.878-12.878,30.726-19.709,51.026-19.709c3.429,0,6.928,0.195,10.482,0.588c33.858,3.741,67.146-6.74,92.577-28.906
			l47.079,47.079C215.397,341.402,204.911,374.685,208.658,408.547z M249.246,303.882l-46.672-46.672L419.593,40.19l45.824,47.52
			L249.246,303.882z M478.259,74.868l-35.594-35.594l13.447-13.447l35.596,35.594L478.259,74.868z"/>
	</g>
</g>
<g>
</g>
<g>
</g>
<g>
</g>
<g>
</g>
<g>
</g>
<g>
</g>
<g>
</g>
<g>
</g>
<g>
</g>
<g>
</g>
<g>
</g>
<g>
</g>
<g>
</g>
<g>
</g>
<g>
</g>
</svg>
