<?xml version="1.0" encoding="iso-8859-1"?>
<!-- Generator: Adobe Illustrator 19.0.0, SVG Export Plug-In . SVG Version: 6.00 Build 0)  -->
<svg version="1.1" id="Layer_1" xmlns="http://www.w3.org/2000/svg" xmlns:xlink="http://www.w3.org/1999/xlink" x="0px" y="0px"
	 viewBox="0 0 470 470" style="enable-background:new 0 0 470 470;" xml:space="preserve">
<g>
	<g>
		<g>
			<path d="M374.873,127.711c-2.497-5.08-4.91-9.988-7.191-14.752c10.307-2.813,19.677-8.469,27.059-16.456
				C404.581,85.857,410,72.006,410,57.5C410,25.794,384.206,0,352.5,0c-29.163,0-53.306,21.827-56.995,50h-121.01
				C170.806,21.827,146.662,0,117.5,0C85.794,0,60,25.794,60,57.5c0,14.506,5.419,28.357,15.259,39.003
				c7.382,7.987,16.753,13.644,27.06,16.456c-2.282,4.765-4.695,9.674-7.193,14.756C75.021,168.609,50,219.506,50,285
				c0,102.01,82.991,185,185,185c102.01,0,185-82.99,185-185C420,219.504,394.979,168.607,374.873,127.711z M310,119.042
				c4.672,10.88,10.04,21.803,15.517,32.942C344.023,189.629,365,232.298,365,285c0,43.771-21.746,82.557-55,106.126V119.042z
				 M174.729,65h120.542c0.348,5.043,1.034,10.038,2.007,15H172.722C173.695,75.038,174.381,70.043,174.729,65z M295,95v305.299
				c-9.389,4.905-19.447,8.698-30,11.201V95H295z M250,95v319.13c-4.923,0.568-9.927,0.87-15,0.87s-10.077-0.302-15-0.87V95H250z
				 M205,95v316.5c-10.553-2.503-20.611-6.296-30-11.201V95H205z M235,455c-93.738,0-170-76.262-170-170
				c0-62.007,24.167-111.167,43.586-150.668c4.107-8.354,7.986-16.245,11.487-23.908c1.014-2.22,0.885-4.795-0.347-6.902
				c-1.232-2.106-3.413-3.482-5.845-3.688C92.079,97.998,75,79.402,75,57.5C75,34.065,94.065,15,117.5,15S160,34.065,160,57.5
				c0,28.924-14.075,57.553-28.976,87.864C111.795,184.477,90,228.809,90,285c0,52.523,28.072,98.612,70,124.056v5.702
				c0,4.143,3.358,7.5,7.5,7.5c3.415,0,6.291-2.284,7.198-5.406c9.588,4.402,19.734,7.787,30.302,10.02v3.778
				c0,4.143,3.358,7.5,7.5,7.5c4.142,0,7.5-3.357,7.5-7.5v-1.422c4.932,0.509,9.936,0.772,15,0.772c5.064,0,10.068-0.264,15-0.772
				v1.422c0,4.143,3.357,7.5,7.5,7.5s7.5-3.357,7.5-7.5v-3.778c10.568-2.232,20.714-5.617,30.302-10.02
				c0.907,3.122,3.783,5.406,7.198,5.406c4.143,0,7.5-3.357,7.5-7.5v-5.702c41.928-25.443,70-71.532,70-124.056
				c0-56.19-21.794-100.521-41.023-139.637C324.075,115.055,310,86.427,310,57.5c0-23.435,19.065-42.5,42.5-42.5
				S395,34.065,395,57.5c0,21.902-17.079,40.498-38.882,42.334c-2.432,0.205-4.612,1.581-5.845,3.688
				c-1.231,2.107-1.361,4.683-0.347,6.902c3.5,7.662,7.379,15.552,11.485,23.905C380.832,173.83,405,222.991,405,285
				C405,378.738,328.738,455,235,455z M160,119.041v272.085c-33.254-23.569-55-62.354-55-106.126
				c0-52.703,20.977-95.372,39.485-133.019C149.961,140.843,155.329,129.92,160,119.041z"/>
			<path d="M145,57.5c0-14.461-11.31-26.506-25.749-27.421c-4.125-0.259-7.697,2.878-7.959,7.011
				c-0.262,4.134,2.876,7.697,7.011,7.96C124.862,45.465,130,50.934,130,57.5c0,6.893-5.607,12.5-12.5,12.5
				c-6.566,0-12.035-5.138-12.451-11.697c-0.261-4.134-3.814-7.271-7.959-7.011c-4.134,0.263-7.272,3.826-7.01,7.96
				C90.995,73.69,103.039,85,117.5,85C132.664,85,145,72.663,145,57.5z"/>
			<path d="M380,57.5c0-14.461-11.31-26.506-25.748-27.421c-4.156-0.243-7.697,2.879-7.96,7.011
				c-0.262,4.134,2.877,7.697,7.011,7.96C359.862,45.465,365,50.934,365,57.5c0,6.893-5.607,12.5-12.5,12.5
				c-6.566,0-12.035-5.138-12.45-11.697c-0.262-4.134-3.815-7.263-7.96-7.011c-4.134,0.263-7.272,3.826-7.011,7.96
				C325.994,73.69,338.039,85,352.5,85C367.663,85,380,72.663,380,57.5z"/>
		</g>
	</g>
</g>
<g>
</g>
<g>
</g>
<g>
</g>
<g>
</g>
<g>
</g>
<g>
</g>
<g>
</g>
<g>
</g>
<g>
</g>
<g>
</g>
<g>
</g>
<g>
</g>
<g>
</g>
<g>
</g>
<g>
</g>
</svg>
